STARTFONT 2.1
FONT -FontForge-Effects Eighty-Book-R-Normal--48-460-75-75-P-220-ISO10646-1
SIZE 46 75 75
FONTBOUNDINGBOX 20 49 0 -10
COMMENT "Generated by fontforge, http://fontforge.sourceforge.net"
COMMENT "Copyright 2013, 2017 Peter Hull. Licensed under SIL Open Font License 1.1"
STARTPROPERTIES 40
FOUNDRY "FontForge"
FAMILY_NAME "Effects Eighty"
WEIGHT_NAME "Book"
SLANT "R"
SETWIDTH_NAME "Normal"
ADD_STYLE_NAME ""
PIXEL_SIZE 48
POINT_SIZE 460
RESOLUTION_X 75
RESOLUTION_Y 75
SPACING "P"
AVERAGE_WIDTH 220
CHARSET_REGISTRY "ISO10646"
CHARSET_ENCODING "1"
FONTNAME_REGISTRY ""
CHARSET_COLLECTIONS "ISO10646-1"
FONT_NAME "EffectsEighty"
FACE_NAME "Effects Eighty"
COPYRIGHT "Copyright 2013, 2017 Peter Hull. Licensed under SIL Open Font License 1.1"
FONT_VERSION "1.100"
FONT_ASCENT 38
FONT_DESCENT 10
UNDERLINE_POSITION -5
UNDERLINE_THICKNESS 3
X_HEIGHT 20
CAP_HEIGHT 29
RAW_ASCENT 800
RAW_DESCENT 200
NORM_SPACE 22
RELATIVE_WEIGHT 40
RELATIVE_SETWIDTH 50
SUPERSCRIPT_X 0
SUPERSCRIPT_Y 16
SUPERSCRIPT_SIZE 28
SUBSCRIPT_X 0
SUBSCRIPT_Y 3
SUBSCRIPT_SIZE 28
FIGURE_WIDTH 22
AVG_LOWERCASE_WIDTH 220
AVG_UPPERCASE_WIDTH 220
ENDPROPERTIES
CHARS 101
STARTCHAR space
ENCODING 32
SWIDTH 450 0
DWIDTH 22 0
BBX 1 1 0 0
BITMAP
00
ENDCHAR
STARTCHAR exclam
ENCODING 33
SWIDTH 450 0
DWIDTH 22 0
BBX 5 31 7 -1
BITMAP
70
F8
F8
F8
70
70
F8
F8
70
70
F8
F8
78
70
F8
F8
F8
70
00
00
00
00
00
00
00
00
70
F8
F8
F8
70
ENDCHAR
STARTCHAR quotedbl
ENCODING 34
SWIDTH 450 0
DWIDTH 22 0
BBX 12 13 4 17
BITMAP
60E0
F1E0
F1F0
F1E0
60C0
F1E0
F1F0
F1E0
60C0
F1E0
F1F0
F1E0
60E0
ENDCHAR
STARTCHAR numbersign
ENCODING 35
SWIDTH 450 0
DWIDTH 22 0
BBX 19 31 0 -1
BITMAP
060E00
0F1E00
0F1F00
0F1E00
060C00
0F1E00
0F1F00
0F1E00
0F1E00
7EEFC0
FFFFE0
FFFFE0
FFFFE0
66ECC0
0F1E00
0F1F00
0F1E00
66ECC0
FFFFE0
FFFFE0
FFFFE0
7EEFC0
0F1E00
0F1E00
0F1F00
0F1E00
060C00
0F1E00
0F1F00
0F1E00
060E00
ENDCHAR
STARTCHAR dollar
ENCODING 36
SWIDTH 450 0
DWIDTH 22 0
BBX 19 31 0 -1
BITMAP
00E000
01F000
01F000
01F000
00E000
06EFC0
0FFFE0
0FFFE0
0FFFE0
76ECC0
F9F000
F9F000
F1F000
666C00
0FFE00
0FFF00
0FFE00
06EEC0
00F1E0
01F3E0
01F1E0
00E1C0
7FFE00
FFFE00
FFFF00
FFFE00
66EC00
00F000
01F000
01F000
00E000
ENDCHAR
STARTCHAR percent
ENCODING 37
SWIDTH 450 0
DWIDTH 22 0
BBX 19 31 0 -1
BITMAP
760300
FF0780
FF0780
FF0780
7E0700
7F0E00
FF1E00
FF1F00
FF1E00
663C00
007800
007C00
007800
007000
00F000
01F000
01F000
00E000
03C000
07C000
07C000
03C000
0E0FC0
0F1FE0
0F1FE0
0F1FE0
1E0CC0
3C1FE0
3C1FE0
3C1FE0
1C0FC0
ENDCHAR
STARTCHAR ampersand
ENCODING 38
SWIDTH 450 0
DWIDTH 22 0
BBX 19 31 0 -1
BITMAP
1B8000
3FC000
3FC000
3FC000
3F8000
70E000
F9F000
F9F000
F0F000
7BE000
3FC000
3FC000
3FC000
1F80C0
0F01E0
0F03E0
0F01E0
6EE3C0
F1F780
F9F780
F9F780
70E700
700E00
F81E00
F81F00
F01E00
666CC0
0FF1E0
0FF3E0
0FF1E0
06E1C0
ENDCHAR
STARTCHAR quotesingle
ENCODING 39
SWIDTH 450 0
DWIDTH 22 0
BBX 7 9 7 21
BITMAP
1C
3E
3E
3C
78
F8
F8
F8
70
ENDCHAR
STARTCHAR parenleft
ENCODING 40
SWIDTH 450 0
DWIDTH 22 0
BBX 9 31 7 -1
BITMAP
0700
0F00
0F80
0F00
0E00
1C00
3E00
3E00
3C00
7800
F800
F800
F800
7000
7800
F800
F800
7000
7000
F800
F800
7000
3C00
3E00
3E00
3C00
1E00
0F00
0F80
0F00
0700
ENDCHAR
STARTCHAR parenright
ENCODING 41
SWIDTH 450 0
DWIDTH 22 0
BBX 8 31 4 -1
BITMAP
60
F0
F0
F0
70
3C
7C
7C
3C
0E
1F
1F
0F
0E
1F
1F
1F
0E
0F
1F
1F
0E
3C
7C
7C
3C
78
F0
F0
F0
60
ENDCHAR
STARTCHAR asterisk
ENCODING 42
SWIDTH 450 0
DWIDTH 22 0
BBX 19 23 0 7
BITMAP
060E00
0F1E00
0F1F00
0F1E00
071C00
03F800
07FC00
07FC00
03F800
7EEFC0
FFFFE0
FFFFE0
FFFFE0
67FCC0
03F800
07FC00
07FC00
03F800
071E00
0F1E00
0F1F00
0F1E00
060C00
ENDCHAR
STARTCHAR plus
ENCODING 43
SWIDTH 450 0
DWIDTH 22 0
BBX 19 22 0 4
BITMAP
004000
00E000
01F000
01F000
00E000
00E000
01F000
01F000
00F000
66ECC0
FFFFE0
FFFFE0
FFFFE0
7EEFC0
00E000
01F000
01F000
00E000
00E000
01F000
01F000
00E000
ENDCHAR
STARTCHAR comma
ENCODING 44
SWIDTH 450 0
DWIDTH 22 0
BBX 9 18 5 -10
BITMAP
7700
7F80
FF80
7F00
3600
7F00
FF80
7F80
7700
0700
0F80
0F80
0F00
1C00
3E00
3E00
3E00
1C00
ENDCHAR
STARTCHAR hyphen
ENCODING 45
SWIDTH 450 0
DWIDTH 22 0
BBX 19 5 0 12
BITMAP
66ECC0
FFFFE0
FFFFE0
FFFFE0
7EEFC0
ENDCHAR
STARTCHAR period
ENCODING 46
SWIDTH 450 0
DWIDTH 22 0
BBX 8 9 4 -1
BITMAP
6E
FF
FF
FF
6E
FF
FF
FF
6E
ENDCHAR
STARTCHAR slash
ENCODING 47
SWIDTH 450 0
DWIDTH 22 0
BBX 15 31 2 -1
BITMAP
000C
001E
001E
001E
001C
0038
0078
007C
0078
00F0
01E0
01F0
01E0
01C0
03C0
07C0
07C0
0380
0F00
1F00
1F00
0F00
3800
3C00
3C00
3C00
7800
F000
F000
F000
7000
ENDCHAR
STARTCHAR zero
ENCODING 48
SWIDTH 450 0
DWIDTH 22 0
BBX 19 31 0 -1
BITMAP
03B800
03FC00
07FC00
03F800
01F000
1C0700
3C0780
3C0780
3C0780
7803C0
F001E0
F803E0
F801E0
7001C0
F001E0
F803E0
F803E0
7001C0
7001C0
F803E0
F803E0
7001C0
3C0780
3C0780
3C0780
3C0780
19B300
03F800
07FC00
03FC00
03B800
ENDCHAR
STARTCHAR one
ENCODING 49
SWIDTH 450 0
DWIDTH 22 0
BBX 12 31 4 -1
BITMAP
0E00
1F00
1F00
1F00
0E00
6E00
FF00
FF00
FF00
6600
0F00
1F00
1F00
0E00
0E00
1F00
1F00
0E00
0E00
1F00
1F00
0E00
0E00
1F00
1F00
1F00
66C0
FFE0
FFF0
FFE0
6EE0
ENDCHAR
STARTCHAR two
ENCODING 50
SWIDTH 450 0
DWIDTH 22 0
BBX 19 31 0 -1
BITMAP
1BBB00
3FFF80
3FFF80
3FFF80
3FFF80
7001C0
F803E0
F803E0
F001E0
6000C0
0001E0
0003E0
0001E0
000DC0
001E00
001F00
001E00
00EE00
01F000
01F000
01F000
00E000
0E0000
0F0000
0F0000
0F0000
66ECC0
FFFFE0
FFFFE0
FFFFE0
7EEFC0
ENDCHAR
STARTCHAR three
ENCODING 51
SWIDTH 450 0
DWIDTH 22 0
BBX 19 31 0 -1
BITMAP
7EEFC0
FFFFE0
FFFFE0
FFFFE0
66ECC0
001E00
001F00
001E00
000E00
00E000
01F000
01F000
01F000
00EC00
001E00
001F00
001E00
000E00
0001C0
0003E0
0003E0
0001E0
7001C0
F801E0
F803E0
F001E0
666CC0
0FFE00
0FFF00
0FFE00
06EE00
ENDCHAR
STARTCHAR four
ENCODING 52
SWIDTH 450 0
DWIDTH 22 0
BBX 19 31 0 -1
BITMAP
00EE00
01FE00
01FF00
01FE00
00FE00
03DE00
03DE00
07DF00
03DE00
078C00
0F1E00
0F1F00
0F1E00
1E0C00
3C1E00
3C1F00
3C1E00
7EECC0
FFFFE0
FFFFE0
FFFFE0
7EEFC0
001E00
001E00
001F00
001E00
000C00
001E00
001F00
001E00
000E00
ENDCHAR
STARTCHAR five
ENCODING 53
SWIDTH 450 0
DWIDTH 22 0
BBX 19 31 0 -1
BITMAP
7EEFC0
FFFFE0
FFFFE0
FFFFE0
66ECC0
F00000
F80000
F80000
700000
7EEE00
FFFE00
FFFF00
FFFE00
666C00
0001E0
0003E0
0003E0
0001C0
0001E0
0003E0
0003E0
0001E0
7001C0
F801E0
F803E0
F001E0
79B3C0
3FFF80
3FFF80
3FFF80
1FBF00
ENDCHAR
STARTCHAR six
ENCODING 54
SWIDTH 450 0
DWIDTH 22 0
BBX 19 31 0 -1
BITMAP
00E000
01F000
01F000
01F000
00E000
03C000
03C000
07C000
03C000
078000
0F0000
0F0000
0F0000
1FB300
3FFF80
3FFF80
3FFF80
3FFF80
7001C0
F803E0
F803E0
7001E0
7001C0
F801E0
F803E0
F001E0
79B3C0
3FFF80
3FFF80
3FFF80
1FBF00
ENDCHAR
STARTCHAR seven
ENCODING 55
SWIDTH 450 0
DWIDTH 22 0
BBX 19 31 0 -1
BITMAP
7EEFC0
FFFFE0
FFFFE0
FFFFE0
66EFC0
000780
000780
000780
000780
000E00
001E00
001F00
001E00
003C00
007800
007C00
007C00
003800
00E000
01F000
01F000
00E000
038000
03C000
07C000
03C000
078000
0F0000
0F0000
0F0000
060000
ENDCHAR
STARTCHAR eight
ENCODING 56
SWIDTH 450 0
DWIDTH 22 0
BBX 19 31 0 -1
BITMAP
1BBB00
3FFF80
3FFF80
3FFF80
3FFF80
7001C0
F803E0
F803E0
7001E0
7001C0
F801E0
F803E0
F001E0
79B3C0
3FFF80
3FFF80
3FFF80
3FFF80
7001C0
F803E0
F803E0
7001E0
7001C0
F801E0
F803E0
F001E0
79B3C0
3FFF80
3FFF80
3FFF80
1FBF00
ENDCHAR
STARTCHAR nine
ENCODING 57
SWIDTH 450 0
DWIDTH 22 0
BBX 19 31 0 -1
BITMAP
1BBB00
3FFF80
3FFF80
3FFF80
3FFF80
7001C0
F803E0
F803E0
7001E0
7001C0
F801E0
F803E0
F001E0
79B3C0
3FFF80
3FFF80
3FFF80
1FBB00
001E00
001F00
001E00
001E00
003800
007C00
007C00
007800
00F000
01F000
01F000
01F000
00E000
ENDCHAR
STARTCHAR colon
ENCODING 58
SWIDTH 450 0
DWIDTH 22 0
BBX 8 22 4 -1
BITMAP
6E
FF
FF
FF
66
FF
FF
FF
6E
00
00
00
00
6E
FF
FF
FF
6E
FF
FF
FF
6E
ENDCHAR
STARTCHAR semicolon
ENCODING 59
SWIDTH 450 0
DWIDTH 22 0
BBX 8 31 4 -10
BITMAP
6E
FF
FF
FF
66
FF
FF
FF
6E
00
00
00
00
6E
FF
FF
FF
6E
FF
FF
FF
6E
0E
1F
1F
0E
60
F0
F0
F0
60
ENDCHAR
STARTCHAR less
ENCODING 60
SWIDTH 450 0
DWIDTH 22 0
BBX 16 31 0 -1
BITMAP
000E
001E
001F
001E
000C
00E0
01F0
01F0
01F0
06E0
0F00
0F00
0F00
6600
F000
F800
F800
7600
0F00
0F00
0F00
0E00
00E0
01F0
01F0
01F0
00EC
001E
001F
001E
000E
ENDCHAR
STARTCHAR equal
ENCODING 61
SWIDTH 450 0
DWIDTH 22 0
BBX 19 14 0 7
BITMAP
7EEFC0
FFFFE0
FFFFE0
FFFFE0
66ECC0
000000
000000
000000
000000
7EEFC0
FFFFE0
FFFFE0
FFFFE0
66ECC0
ENDCHAR
STARTCHAR greater
ENCODING 62
SWIDTH 450 0
DWIDTH 22 0
BBX 15 31 4 -1
BITMAP
6000
F000
F000
F000
6000
0E00
1F00
1F00
1F00
0EE0
01E0
01F0
01E0
00CC
001E
003E
001E
00DC
01E0
01F0
01E0
00E0
0E00
1F00
1F00
1F00
6E00
F000
F000
F000
6000
ENDCHAR
STARTCHAR question
ENCODING 63
SWIDTH 450 0
DWIDTH 22 0
BBX 19 31 0 -1
BITMAP
1BBB00
3FFF80
3FFF80
3FFF80
3FFF80
7001C0
F803E0
F803E0
F001E0
6000C0
0001E0
0003E0
0001E0
000DC0
001E00
001F00
001E00
00EE00
01F000
01F000
01F000
00E000
000000
000000
000000
000000
00E000
01F000
01F000
01F000
00E000
ENDCHAR
STARTCHAR at
ENCODING 64
SWIDTH 450 0
DWIDTH 22 0
BBX 19 31 0 -1
BITMAP
06EE00
0FFE00
0FFF00
0FFE00
0FFC00
1C01C0
3C01E0
3C03E0
3C01E0
78ECC0
F1FFE0
F9FFE0
F1FFE0
61ECC0
F3C1E0
FFC3E0
F3C1E0
63CCC0
F0FFE0
F9FFE0
F9FFE0
70EFC0
3C0000
3C0000
3C0000
3C0000
1EECC0
0FFFE0
0FFFE0
0FFFE0
06EFC0
ENDCHAR
STARTCHAR A
ENCODING 65
SWIDTH 450 0
DWIDTH 22 0
BBX 19 31 0 -1
BITMAP
03B800
03F800
07FC00
07FC00
03F800
0F1E00
0F1E00
0F1F00
0F1E00
1E0F00
3C0780
3C0780
3C0780
380380
F001E0
F803E0
F001E0
66ECC0
FFFFE0
FFFFE0
FFFFE0
7EEFC0
7001E0
F803E0
F803E0
F001E0
7000C0
F001E0
F803E0
F801E0
7001C0
ENDCHAR
STARTCHAR B
ENCODING 66
SWIDTH 450 0
DWIDTH 22 0
BBX 19 31 0 -1
BITMAP
76EE00
FFFE00
FFFF00
FFFE00
7FFC00
3C01C0
3C01E0
3C03E0
3C01E0
1C01C0
3C01E0
3C03E0
3C01E0
19B3C0
3FFF80
3FFF80
3FFF80
3FFF80
3C01C0
3C03E0
3C03E0
3C01E0
1C01C0
3C01E0
3C03E0
3C01E0
7E4DC0
FFFE00
FFFF00
FFFE00
7EEE00
ENDCHAR
STARTCHAR C
ENCODING 67
SWIDTH 450 0
DWIDTH 22 0
BBX 19 31 0 -1
BITMAP
1BBB00
3FFF80
3FFF80
3FFF80
3FFF80
7001C0
F803E0
F803E0
F001E0
6000C0
F00000
F80000
F80000
700000
F00000
F80000
F80000
700000
700000
F80000
F80000
700000
7001C0
F801E0
F803E0
F001E0
79B3C0
3FFF80
3FFF80
3FFF80
1FBF00
ENDCHAR
STARTCHAR D
ENCODING 68
SWIDTH 450 0
DWIDTH 22 0
BBX 19 31 0 -1
BITMAP
7EEE00
FFFE00
FFFF00
FFFE00
7EEF00
3C0780
3C0780
3C0780
3C0780
1C01C0
3C01E0
3C03E0
3C01E0
1800C0
3C01E0
3C03E0
3C01E0
1800C0
3C01E0
3C03E0
3C01E0
1C01C0
3C0780
3C0780
3C0780
3C0780
7EEF00
FFFE00
FFFF00
FFFE00
7EEE00
ENDCHAR
STARTCHAR E
ENCODING 69
SWIDTH 450 0
DWIDTH 22 0
BBX 19 31 0 -1
BITMAP
7EEFC0
FFFFE0
FFFFE0
FFFFE0
66ECC0
F00000
F80000
F80000
700000
700000
F80000
F80000
F00000
66EC00
FFFE00
FFFF00
FFFE00
7EEE00
700000
F80000
F80000
700000
700000
F80000
F80000
F00000
66ECC0
FFFFE0
FFFFE0
FFFFE0
7EEFC0
ENDCHAR
STARTCHAR F
ENCODING 70
SWIDTH 450 0
DWIDTH 22 0
BBX 19 31 0 -1
BITMAP
7EEFC0
FFFFE0
FFFFE0
FFFFE0
66ECC0
F00000
F80000
F80000
700000
700000
F80000
F80000
F00000
66EC00
FFFE00
FFFF00
FFFE00
7EEE00
700000
F80000
F80000
700000
700000
F80000
F80000
F00000
600000
F00000
F80000
F80000
700000
ENDCHAR
STARTCHAR G
ENCODING 71
SWIDTH 450 0
DWIDTH 22 0
BBX 19 31 0 -1
BITMAP
1BBB00
3FFF80
3FFF80
3FFF80
3FFF80
7001C0
F803E0
F803E0
F001E0
6000C0
F00000
F80000
F00000
70EFC0
F9FFE0
F9FFE0
F1FFE0
60ECC0
F001E0
F803E0
F803E0
7001C0
7001C0
F803E0
F803E0
7001C0
3FBF80
3FFF80
3FFF80
3FFF80
1FBB00
ENDCHAR
STARTCHAR H
ENCODING 72
SWIDTH 450 0
DWIDTH 22 0
BBX 19 31 0 -1
BITMAP
7001C0
F801E0
F803E0
F001E0
7000C0
F001E0
F803E0
F803E0
7001C0
7001C0
F801E0
F803E0
F001E0
66ECC0
FFFFE0
FFFFE0
FFFFE0
7EEFC0
7001E0
F803E0
F803E0
7001E0
7001C0
F801E0
F803E0
F001E0
6000C0
F001E0
F803E0
F801E0
7001C0
ENDCHAR
STARTCHAR I
ENCODING 73
SWIDTH 450 0
DWIDTH 22 0
BBX 12 31 4 -1
BITMAP
6EE0
FFE0
FFF0
FFE0
66C0
0F00
1F00
1F00
0E00
0E00
1F00
1F00
1F00
0600
1F00
1F00
1F00
0E00
0E00
1F00
1F00
0E00
0E00
1F00
1F00
1F00
66C0
FFE0
FFF0
FFE0
6EE0
ENDCHAR
STARTCHAR J
ENCODING 74
SWIDTH 450 0
DWIDTH 22 0
BBX 17 31 0 -1
BITMAP
03BB00
03FF80
07FF80
03FF80
01BF00
001E00
001F00
001E00
001E00
001E00
001E00
001F00
001E00
000C00
001E00
001F00
001E00
000E00
001E00
001E00
001F00
001E00
700E00
F81E00
F81F00
F01E00
79BC00
3FF800
3FFC00
3FFC00
1FB800
ENDCHAR
STARTCHAR K
ENCODING 75
SWIDTH 450 0
DWIDTH 22 0
BBX 19 31 0 -1
BITMAP
7001C0
F001E0
F803E0
F801E0
7000C0
700E00
F81E00
F81F00
F01E00
70EC00
F1F000
F9F000
F1F000
66E000
FF0000
FF0000
FF0000
66E000
F1F000
F9F000
F9F000
70E000
700E00
F81E00
F81F00
F01E00
600CC0
F001E0
F803E0
F801E0
7001C0
ENDCHAR
STARTCHAR L
ENCODING 76
SWIDTH 450 0
DWIDTH 22 0
BBX 19 31 0 -1
BITMAP
700000
F00000
F80000
F80000
700000
700000
F80000
F80000
700000
700000
F80000
F80000
F00000
600000
F00000
F80000
F80000
700000
700000
F80000
F80000
700000
700000
F80000
F80000
F00000
66ECC0
FFFFE0
FFFFE0
FFFFE0
7EEFC0
ENDCHAR
STARTCHAR M
ENCODING 77
SWIDTH 450 0
DWIDTH 22 0
BBX 19 31 0 -1
BITMAP
7001C0
F001E0
F803E0
F803E0
7001E0
7E0FC0
FF1FE0
FF1FE0
FF1FE0
77BCC0
F3F9E0
FFFFE0
F3F9E0
61F0C0
F0F1E0
F9F3E0
F9F1E0
70E1C0
7001E0
F803E0
F803E0
F001E0
7001C0
F801E0
F803E0
F001E0
6000C0
F001E0
F803E0
F801E0
7001C0
ENDCHAR
STARTCHAR N
ENCODING 78
SWIDTH 450 0
DWIDTH 22 0
BBX 19 31 0 -1
BITMAP
7001C0
F001E0
F803E0
F803E0
7001E0
7E01C0
FF01E0
FF03E0
FF01E0
7781C0
FBC1E0
FFC3E0
F3C1E0
70E1C0
F9F1E0
F9F3E0
F1F1E0
70E1C0
F079E0
F87FE0
F87FE0
7039C0
701FC0
F81FE0
F81FE0
F01FE0
600CC0
F001E0
F803E0
F801E0
7001C0
ENDCHAR
STARTCHAR O
ENCODING 79
SWIDTH 450 0
DWIDTH 22 0
BBX 19 31 0 -1
BITMAP
1FBB00
3FFF80
3FFF80
3FFF80
39B3C0
F001E0
F803E0
F803E0
7001E0
7001C0
F801E0
F803E0
F001E0
6000C0
F001E0
F803E0
F801E0
7001C0
7001E0
F803E0
F803E0
7001E0
7001C0
F801E0
F803E0
F001E0
39B3C0
3FFF80
3FFF80
3FFF80
1FBF00
ENDCHAR
STARTCHAR P
ENCODING 80
SWIDTH 450 0
DWIDTH 22 0
BBX 19 31 0 -1
BITMAP
76EE00
FFFE00
FFFF00
FFFE00
7FFC00
7001C0
F801E0
F803E0
7001E0
7001C0
F801E0
F803E0
F001E0
664DC0
FFFE00
FFFF00
FFFE00
7EEE00
700000
F80000
F80000
700000
700000
F80000
F80000
F00000
600000
F00000
F80000
F80000
700000
ENDCHAR
STARTCHAR Q
ENCODING 81
SWIDTH 450 0
DWIDTH 22 0
BBX 19 31 0 -1
BITMAP
1FBB00
3FFF80
3FFF80
3FFF80
79B3C0
F001E0
F803E0
F801E0
7001C0
7001E0
F803E0
F803E0
7001E0
7001C0
F801E0
F803E0
F001E0
60E0C0
F1F1E0
F9F3E0
F9F1E0
70E1C0
700E00
F81E00
F81F00
F01E00
79BCC0
3FF9E0
3FFFE0
3FFDE0
1FB9C0
ENDCHAR
STARTCHAR R
ENCODING 82
SWIDTH 450 0
DWIDTH 22 0
BBX 19 31 0 -1
BITMAP
76EE00
FFFE00
FFFF00
FFFE00
7FFC00
7001C0
F803E0
F803E0
7001C0
7001C0
F801E0
F803E0
F001E0
66EFC0
FFFE00
FFFF00
FFFE00
66EC00
F01E00
F81F00
F81E00
700E00
700780
F80780
F80780
F00780
6003C0
F001E0
F803E0
F801E0
7001C0
ENDCHAR
STARTCHAR S
ENCODING 83
SWIDTH 450 0
DWIDTH 22 0
BBX 19 31 0 -1
BITMAP
1BBB00
3FFF80
3FFF80
3FFF80
3FFF80
7001C0
F803E0
F803E0
F001E0
6000C0
F00000
F80000
F00000
79B300
3FFF80
3FFF80
3FFF80
1FBF80
0001C0
0003E0
0003E0
0001E0
7001C0
F801E0
F803E0
F001E0
79B3C0
3FFF80
3FFF80
3FFF80
1FBF00
ENDCHAR
STARTCHAR T
ENCODING 84
SWIDTH 450 0
DWIDTH 22 0
BBX 19 31 0 -1
BITMAP
7EEFC0
FFFFE0
FFFFE0
FFFFE0
666CC0
00F000
01F000
01F000
00E000
00E000
01F000
01F000
01F000
006000
00F000
01F000
01F000
00E000
00E000
01F000
01F000
00E000
00E000
01F000
01F000
01F000
006000
01F000
01F000
01F000
00E000
ENDCHAR
STARTCHAR U
ENCODING 85
SWIDTH 450 0
DWIDTH 22 0
BBX 19 31 0 -1
BITMAP
7001C0
F001E0
F803E0
F801E0
7001C0
7001E0
F803E0
F803E0
7001E0
7001C0
F801E0
F803E0
F001E0
6000C0
F001E0
F803E0
F801E0
7001C0
7001E0
F803E0
F803E0
7001E0
7001C0
F801E0
F803E0
F001E0
39B3C0
3FFF80
3FFF80
3FFF80
1FBF00
ENDCHAR
STARTCHAR V
ENCODING 86
SWIDTH 450 0
DWIDTH 22 0
BBX 19 31 0 -1
BITMAP
7001C0
F801E0
F803E0
F001E0
7000C0
F001E0
F803E0
F803E0
7001C0
7001C0
F801E0
F803E0
7001C0
380380
3C0780
3C0780
3C0780
1C0700
0E0E00
0F1E00
0F1F00
0F1E00
03B800
03FC00
07FC00
03F800
03B800
00E000
01F000
01F000
00E000
ENDCHAR
STARTCHAR W
ENCODING 87
SWIDTH 450 0
DWIDTH 22 0
BBX 19 31 0 -1
BITMAP
7001C0
F801E0
F803E0
F001E0
7001C0
F001E0
F803E0
F803E0
F001E0
70E1C0
F1F1E0
F9F3E0
F1F1E0
70E1C0
F0E1E0
F9F3E0
F9F3E0
70E1E0
73B9C0
FFFFE0
FFFFE0
73F9C0
7F1FC0
FF1FE0
FF1FE0
FF1FE0
760FC0
3C0780
3C0780
3C0780
1C0700
ENDCHAR
STARTCHAR X
ENCODING 88
SWIDTH 450 0
DWIDTH 22 0
BBX 15 31 2 -1
BITMAP
600C
F01E
F01E
F01E
701C
3838
3C78
3C7C
3C78
1EF0
0FE0
1FF0
0FE0
07C0
03C0
07C0
07C0
0380
0EE0
1FF0
1FF0
0EE0
3C78
3C78
3C7C
3C78
783C
F01E
F01E
F01E
701C
ENDCHAR
STARTCHAR Y
ENCODING 89
SWIDTH 450 0
DWIDTH 22 0
BBX 19 31 0 -1
BITMAP
7001C0
F001E0
F803E0
F803E0
7001C0
3C0780
3C0780
3C0780
3C0780
1E0F00
0F1E00
0F1F00
0F1E00
07BC00
03F800
07FC00
03FC00
03B800
00E000
01F000
01F000
00E000
00E000
01F000
01F000
01F000
006000
01F000
01F000
01F000
00E000
ENDCHAR
STARTCHAR Z
ENCODING 90
SWIDTH 450 0
DWIDTH 22 0
BBX 15 31 2 -1
BITMAP
7EEC
FFFE
FFFE
FFFE
66FC
0078
007C
0078
0078
00E0
01F0
01F0
01E0
03C0
07C0
07C0
07C0
0380
0F00
1F00
1F00
0E00
3800
3C00
3C00
3C00
7ECC
FFFE
FFFE
FFFE
7EFC
ENDCHAR
STARTCHAR bracketleft
ENCODING 91
SWIDTH 450 0
DWIDTH 22 0
BBX 12 31 4 -1
BITMAP
6EE0
FFE0
FFF0
FFE0
6EC0
F000
F000
F000
F000
E000
F000
F000
F000
6000
F000
F000
F000
6000
F000
F000
F000
F000
E000
F000
F000
F000
6EC0
FFE0
FFF0
FFE0
6EE0
ENDCHAR
STARTCHAR backslash
ENCODING 92
SWIDTH 450 0
DWIDTH 22 0
BBX 15 31 2 -1
BITMAP
6000
F000
F000
F000
7000
3800
3C00
3C00
3C00
0E00
0F00
1F00
0F00
0F80
03C0
07C0
07C0
0380
01E0
01F0
01F0
00E0
0078
0078
007C
0078
003C
001E
001E
001E
001C
ENDCHAR
STARTCHAR bracketright
ENCODING 93
SWIDTH 450 0
DWIDTH 22 0
BBX 12 31 4 -1
BITMAP
6EE0
FFE0
FFF0
FFE0
6EC0
01E0
01F0
01E0
01E0
00E0
01E0
01F0
01E0
00C0
01E0
01F0
01E0
00E0
01E0
01F0
01E0
01E0
00E0
01E0
01F0
01E0
6EC0
FFE0
FFF0
FFE0
6EE0
ENDCHAR
STARTCHAR asciicircum
ENCODING 94
SWIDTH 450 0
DWIDTH 22 0
BBX 19 14 0 16
BITMAP
00E000
01F000
01F000
01F000
00E000
060E00
0F1E00
0F1F00
0F1E00
660CC0
F001E0
F803E0
F801E0
7001C0
ENDCHAR
STARTCHAR underscore
ENCODING 95
SWIDTH 450 0
DWIDTH 22 0
BBX 19 5 0 -10
BITMAP
666CC0
FFFFE0
FFFFE0
FFFFE0
7EEFC0
ENDCHAR
STARTCHAR grave
ENCODING 96
SWIDTH 450 0
DWIDTH 22 0
BBX 7 9 5 21
BITMAP
70
78
F8
78
3C
1E
3E
3E
1C
ENDCHAR
STARTCHAR a
ENCODING 97
SWIDTH 450 0
DWIDTH 22 0
BBX 19 22 0 -1
BITMAP
06EE00
0FFE00
0FFF00
0FFE00
06EF00
000780
000780
000780
19B300
3FFF80
3FFF80
3FFF80
3FFF80
700780
F80780
F80780
F00780
79B3C0
3FF9E0
3FFFE0
3FFDE0
1FB9C0
ENDCHAR
STARTCHAR b
ENCODING 98
SWIDTH 450 0
DWIDTH 22 0
BBX 17 31 0 -1
BITMAP
700000
F80000
F80000
F00000
700000
F00000
F80000
F80000
700000
7EEE00
FFFE00
FFFF00
FFFE00
764F00
F00780
F80780
F80780
700780
700780
F80780
F80780
700780
700700
F80780
F80780
700700
7FEE00
FFFE00
FFFF00
FFFE00
76EC00
ENDCHAR
STARTCHAR c
ENCODING 99
SWIDTH 450 0
DWIDTH 22 0
BBX 17 22 0 -1
BITMAP
1FBF00
3FFF80
3FFF80
3FFF80
79B300
F00000
F80000
F80000
700000
700000
F80000
F80000
700000
700000
F80000
F80000
700000
3FBF00
3FFF80
3FFF80
3FFF80
1FBB00
ENDCHAR
STARTCHAR d
ENCODING 100
SWIDTH 450 0
DWIDTH 22 0
BBX 17 31 0 -1
BITMAP
000300
000780
000780
000780
000300
000780
000780
000780
000780
1FBF00
3FFF80
3FFF80
3FFF80
79B300
F00780
F80780
F80780
700780
700780
F80780
F80780
700780
700700
F80780
F80780
700780
3FBF00
3FFF80
3FFF80
3FFF80
1FBB00
ENDCHAR
STARTCHAR e
ENCODING 101
SWIDTH 450 0
DWIDTH 22 0
BBX 19 22 0 -1
BITMAP
1FBF00
3FFF80
3FFF80
3FFF80
79B3C0
F001E0
F803E0
F001E0
66ECC0
FFFFE0
FFFFE0
FFFFE0
7EEFC0
F00000
F80000
F80000
700000
3FBF00
3FFF80
3FFF80
3FFF80
1FBB00
ENDCHAR
STARTCHAR f
ENCODING 102
SWIDTH 450 0
DWIDTH 22 0
BBX 16 31 0 -1
BITMAP
00EE
01FE
01FF
01FE
01EC
03C0
07C0
07C0
0380
0380
07C0
07C0
03C0
67EC
FFFE
FFFF
FFFE
7EEE
03C0
07C0
07C0
03C0
0380
03C0
07C0
03C0
0180
03C0
07C0
03C0
0380
ENDCHAR
STARTCHAR g
ENCODING 103
SWIDTH 450 0
DWIDTH 22 0
BBX 17 31 0 -10
BITMAP
1FBB00
3FFF80
3FFF80
3FFF80
3FFF00
700780
F80780
F80780
700780
700780
F80780
F80780
700780
700700
F80780
F80780
F00780
79B300
3FFF80
3FFF80
3FFF80
1FBF00
000780
000780
000780
000780
06EF00
0FFE00
0FFF00
0FFE00
06EE00
ENDCHAR
STARTCHAR h
ENCODING 104
SWIDTH 450 0
DWIDTH 22 0
BBX 17 31 0 -1
BITMAP
700000
F80000
F80000
F00000
700000
F00000
F80000
F80000
700000
7EEE00
FFFE00
FFFF00
FFFE00
66EF00
F00780
F80780
F80780
700780
700780
F80780
F80780
F00780
700300
F80780
F80780
F00780
600300
F00780
F80780
F80780
700700
ENDCHAR
STARTCHAR i
ENCODING 105
SWIDTH 450 0
DWIDTH 22 0
BBX 12 31 2 -1
BITMAP
0E00
0F00
1F00
0F00
0600
0000
0000
0000
0000
7E00
FF00
FF00
FF00
6600
0F00
1F00
1F00
0E00
0F00
1F00
1F00
0F00
0E00
0F00
1F00
0F00
66C0
FFE0
FFF0
FFF0
7EE0
ENDCHAR
STARTCHAR j
ENCODING 106
SWIDTH 450 0
DWIDTH 22 0
BBX 14 35 2 -5
BITMAP
0038
0078
007C
0078
0030
0000
0000
0000
0000
0038
0078
007C
0078
0030
0078
007C
0078
0038
0078
0078
007C
0078
0038
0078
007C
0078
0030
0078
007C
0078
66F8
FFE0
FFF0
FFF0
7EE0
ENDCHAR
STARTCHAR k
ENCODING 107
SWIDTH 450 0
DWIDTH 22 0
BBX 15 31 2 -1
BITMAP
7000
F000
F000
F000
6000
F000
F000
F000
F000
701C
F01E
F01E
F01E
60CC
F1E0
F1F0
F1F0
66E0
FF00
FF00
FF00
FE00
F0E0
F1F0
F1F0
F1E0
60CC
F01E
F01E
F01E
701C
ENDCHAR
STARTCHAR l
ENCODING 108
SWIDTH 450 0
DWIDTH 22 0
BBX 12 31 2 -1
BITMAP
7E00
FF00
FF00
FF00
6600
0F00
1F00
1F00
0F00
0E00
0F00
1F00
0F00
0600
0F00
1F00
0F00
0E00
0F00
1F00
1F00
0F00
0E00
1F00
1F00
0F00
66C0
FFE0
FFF0
FFF0
7EE0
ENDCHAR
STARTCHAR m
ENCODING 109
SWIDTH 450 0
DWIDTH 22 0
BBX 19 22 0 -1
BITMAP
1FBF00
3FFF80
3FFF80
3FFF80
79F3C0
F0F1E0
F9F3E0
F9F3E0
70E1C0
70E1C0
F9F3E0
F9F3E0
F0E1E0
70E1C0
F9F1E0
F9F3E0
F1F1E0
60E0C0
F0F1E0
F9F3E0
F9F1E0
70E1C0
ENDCHAR
STARTCHAR n
ENCODING 110
SWIDTH 450 0
DWIDTH 22 0
BBX 17 22 0 -1
BITMAP
7EEE00
FFFE00
FFFF00
FFFE00
66EF00
F00780
F80780
F80780
700780
700780
F80780
F80780
F00780
700300
F80780
F80780
F00780
600300
F00780
F80780
F80780
700700
ENDCHAR
STARTCHAR o
ENCODING 111
SWIDTH 450 0
DWIDTH 22 0
BBX 19 22 0 -1
BITMAP
1FBF00
3FFF80
3FFF80
3FFF80
79B3C0
F001E0
F803E0
F801E0
7001C0
7001E0
F803E0
F803E0
7001E0
7001C0
F801E0
F803E0
7001C0
3FBF80
3FFF80
3FFF80
3FFF80
1FBB00
ENDCHAR
STARTCHAR p
ENCODING 112
SWIDTH 450 0
DWIDTH 22 0
BBX 17 31 0 -10
BITMAP
76EC00
FFFE00
FFFF00
FFFE00
7FFE00
700700
F80780
F80780
700780
700780
F80780
F80780
700780
700700
F80780
F80780
F00780
764F00
FFFE00
FFFF00
FFFE00
7EEE00
700000
F80000
F80000
F00000
700000
F00000
F80000
F80000
700000
ENDCHAR
STARTCHAR q
ENCODING 113
SWIDTH 450 0
DWIDTH 22 0
BBX 17 31 2 -10
BITMAP
1BB700
3FFF80
3FFF80
3FFF80
3FFF00
700780
F00F80
F00F80
F00700
F00780
F00F80
F00F80
F00780
700700
F00780
F00F80
F00780
793300
3FFF80
3FFF80
3FFF80
1BBF00
000780
000F80
000F80
000780
000300
000780
000F80
000780
000700
ENDCHAR
STARTCHAR r
ENCODING 114
SWIDTH 450 0
DWIDTH 22 0
BBX 17 22 0 -1
BITMAP
73BF00
FBFF80
FFFF80
F3FF80
67B300
FF0000
FF0000
FF0000
7E0000
700000
F80000
F80000
700000
700000
F80000
F80000
F00000
600000
F00000
F80000
F80000
700000
ENDCHAR
STARTCHAR s
ENCODING 115
SWIDTH 450 0
DWIDTH 22 0
BBX 19 22 0 -1
BITMAP
1FBF00
3FFF80
3FFF80
3FFF80
79B300
F00000
F80000
F00000
79B300
3FFF80
3FFF80
3FFF80
1FFF80
0001C0
0003E0
0003E0
0001E0
19B3C0
3FFF80
3FFF80
3FFF80
1FBF00
ENDCHAR
STARTCHAR t
ENCODING 116
SWIDTH 450 0
DWIDTH 22 0
BBX 17 31 0 -1
BITMAP
060000
0F0000
0F0000
0F0000
060000
0F0000
0F0000
0F0000
0F0000
7EEE00
FFFE00
FFFF00
FFFE00
66EC00
0F0000
0F0000
0F0000
0F0000
0F0000
0F0000
0F0000
0F0000
0E0000
0F0000
0F0000
0F0000
07B300
03FF80
07FF80
03FF80
03BF00
ENDCHAR
STARTCHAR u
ENCODING 117
SWIDTH 450 0
DWIDTH 22 0
BBX 19 22 0 -1
BITMAP
700300
F80780
F80780
F00780
700300
F00780
F80780
F80780
700780
700780
F80780
F80780
700780
700700
F80780
F80780
F00780
79B3C0
3FF9E0
3FFFE0
3FFDE0
1FB9C0
ENDCHAR
STARTCHAR v
ENCODING 118
SWIDTH 450 0
DWIDTH 22 0
BBX 19 22 0 -1
BITMAP
7001C0
F801E0
F803E0
F001E0
7803C0
3C0780
3C0780
3C0780
1C0700
0E0E00
0F1E00
0F1F00
0F1E00
03B800
03FC00
07FC00
03F800
03B800
00E000
01F000
01F000
00E000
ENDCHAR
STARTCHAR w
ENCODING 119
SWIDTH 450 0
DWIDTH 22 0
BBX 19 22 0 -1
BITMAP
7001C0
F801E0
F803E0
F001E0
70E1C0
F1F1E0
F9F3E0
F9F3E0
70E1E0
73B9C0
FFFFE0
FFFFE0
73F9C0
7F1FC0
FF1FE0
FF1FE0
FF1FE0
760FC0
3C0780
3C0780
3C0780
1C0700
ENDCHAR
STARTCHAR x
ENCODING 120
SWIDTH 450 0
DWIDTH 22 0
BBX 16 22 0 -1
BITMAP
700E
F81E
F81F
F01E
783C
3C78
3C7C
3C7C
1DB8
03C0
07C0
03C0
0380
1C38
3C7C
3C7C
3C78
783C
F01E
F81F
F81E
700E
ENDCHAR
STARTCHAR y
ENCODING 121
SWIDTH 450 0
DWIDTH 22 0
BBX 19 31 0 -10
BITMAP
7001C0
F001E0
F803E0
F803E0
7001C0
3C0780
3C0780
3C0780
3C0780
1E0F00
0F1E00
0F1F00
0F1E00
03B800
03FC00
07FC00
03F800
03B800
00E000
01F000
01F000
00E000
03C000
03C000
07C000
03C000
078000
0F0000
0F0000
0F0000
060000
ENDCHAR
STARTCHAR z
ENCODING 122
SWIDTH 450 0
DWIDTH 22 0
BBX 16 22 0 -1
BITMAP
7EEE
FFFE
FFFF
FFFE
66FC
0078
007C
0078
01B0
03C0
07C0
03C0
0380
3C00
3C00
3C00
3C00
7EEC
FFFE
FFFF
FFFE
7EEE
ENDCHAR
STARTCHAR braceleft
ENCODING 123
SWIDTH 450 0
DWIDTH 22 0
BBX 13 31 4 -1
BITMAP
03B0
07F8
07F8
07F8
03F0
0F00
1F00
1F00
0E00
0E00
1F00
1F00
1F00
6E00
F000
F000
F000
6000
0E00
1F00
1F00
0E00
0E00
1F00
1F00
1F00
0F30
07F8
07F8
07F8
03F0
ENDCHAR
STARTCHAR bar
ENCODING 124
SWIDTH 450 0
DWIDTH 22 0
BBX 5 31 7 -1
BITMAP
70
F8
F8
F8
30
F8
F8
F8
70
78
F8
F8
70
00
00
00
00
00
70
F8
F8
F8
70
F8
F8
F8
70
78
F8
F8
70
ENDCHAR
STARTCHAR braceright
ENCODING 125
SWIDTH 450 0
DWIDTH 22 0
BBX 14 31 2 -1
BITMAP
6E00
FF00
FF00
FF00
7E00
0380
07C0
07C0
0380
0380
07C0
07C0
07C0
03B0
0078
007C
0078
0038
0380
07C0
07C0
0380
0380
07C0
07C0
07C0
6780
FF00
FF00
FF00
7E00
ENDCHAR
STARTCHAR asciitilde
ENCODING 126
SWIDTH 450 0
DWIDTH 22 0
BBX 19 14 0 16
BITMAP
198000
3FC000
3FC000
3FC000
3FC000
70E1C0
F9F1E0
F9F3E0
F0F1E0
6073C0
007F80
007F80
007F80
003F00
ENDCHAR
STARTCHAR exclamdown
ENCODING 161
SWIDTH 450 0
DWIDTH 22 0
BBX 7 31 7 -1
BITMAP
7C
FE
FE
FC
78
00
00
00
00
00
00
00
00
7C
FC
FE
FE
7C
7C
FE
FE
7C
7C
FE
FE
FC
38
FC
FE
FE
7C
ENDCHAR
STARTCHAR sterling
ENCODING 163
SWIDTH 450 0
DWIDTH 22 0
BBX 19 31 0 -1
BITMAP
03BB00
03FF80
07FF80
07FF80
03FF80
0701C0
0F03E0
0F03E0
0F01E0
0600C0
0F0000
0F0000
0F0000
66E000
FFF000
FFF000
FFF000
76E000
0F0000
0F0000
0F0000
0F0000
0E0000
0F0000
0F0000
0F0000
66ECC0
FFFFE0
FFFFE0
FFFFE0
7EEFC0
ENDCHAR
STARTCHAR currency
ENCODING 164
SWIDTH 450 0
DWIDTH 22 0
BBX 19 31 0 -1
BITMAP
7001C0
F801E0
F803E0
F001E0
6000C0
0FFE00
0FFE00
0FFF00
0FFE00
1E4F00
3C0780
3C0780
3C0780
7803C0
F001E0
F803E0
F801E0
7001C0
3C0780
3C0780
3C0780
1C0700
0FFE00
0FFE00
0FFF00
0FFE00
66ECC0
F001E0
F803E0
F801E0
7001C0
ENDCHAR
STARTCHAR yen
ENCODING 165
SWIDTH 450 0
DWIDTH 22 0
BBX 19 31 0 -1
BITMAP
7001C0
F801E0
F803E0
F001E0
6000C0
0F1E00
0F1E00
0F1F00
0F1E00
7EEFC0
FFFFE0
FFFFE0
FFFFE0
666CC0
01F000
01F000
01F000
666CC0
FFFFE0
FFFFE0
FFFFE0
7EEFC0
00E000
01F000
01F000
00E000
00E000
01F000
01F000
01F000
00E000
ENDCHAR
STARTCHAR dieresis
ENCODING 168
SWIDTH 450 0
DWIDTH 22 0
BBX 12 5 4 25
BITMAP
60C0
F1E0
F1F0
F1E0
60E0
ENDCHAR
STARTCHAR .notdef
ENCODING -1
SWIDTH 500 0
DWIDTH 24 0
BBX 16 49 4 -10
BITMAP
FFFF
FFFF
FFFF
F00F
F00F
FE7F
FE7F
F00F
FFFF
FFFF
F07F
F27F
F27F
F00F
F00F
FFFF
F00F
F00F
FE7F
F04F
F04F
FFCF
F00F
F00F
FFFF
F20F
F24F
F24F
F3CF
F00F
FFFF
FFFF
FFFF
F00F
F00F
F3CF
F3CF
F00F
F00F
FFFF
F00F
FE3F
FC7F
F1FF
F00F
FFFF
FFFF
FFFF
FFFF
ENDCHAR
ENDFONT
